<svg xmlns="http://www.w3.org/2000/svg" class="icon icon-tabler icon-tabler-clock" width="24" height="24" viewBox="0 0 24 24" stroke-width="2" stroke="currentColor" fill="none" stroke-linecap="round" stroke-linejoin="round">
  <path stroke="none" d="M0 0h24v24H0z"/>
  <polyline points="12 7 12 12 15 15" />
  <path d="M 16.339665,8.7681596 H 21 V 4.1078251"/>
  <path d="m 20.595377,14.676325 c -0.08765,0.281817 -0.188786,0.557695 -0.302642,0.826881 -0.455425,1.076745 -1.114434,2.046415 -1.928774,2.860755 C 16.735281,19.992641 14.485281,21 12,21 7.0294373,21 3,16.970563 3,12 3,7.0294373 7.0294373,3 12,3 c 2.485281,0 4.735281,1.0073593 6.363961,2.636039 0.81434,0.8143398 1.47335,1.7840097 1.928774,2.8607548" />
</svg>