<?xml version="1.0" encoding="UTF-8" standalone="no"?>
<svg
   height="24px"
   viewBox="0 -960 960 960"
   width="24px"
   fill="#e8eaed"
   version="1.1"
   id="svg4"
   xml:space="preserve"
   xmlns="http://www.w3.org/2000/svg"
   xmlns:svg="http://www.w3.org/2000/svg"><defs
     id="defs8" /><path
     d="m 480,-80 q -83.33333,0 -156.11111,-31.66667 -72.77778,-31.66666 -126.66667,-85.55555 -53.88889,-53.88889 -85.55555,-126.66667 Q 80,-396.66667 80,-480 q 0,-83.33333 31.66667,-156.11111 31.66666,-72.77778 85.55555,-126.66667 53.88889,-53.88889 126.66667,-85.55555 Q 396.66667,-880 480,-880 q 91.11111,0 172.77778,38.88889 81.66666,38.88889 138.33333,110 v -60 q 0,-18.88889 12.77778,-31.66667 12.77778,-12.77778 31.66667,-12.77778 18.88888,0 31.66666,12.77778 Q 880,-810 880,-791.11111 v 177.77778 q 0,18.88889 -12.77778,31.66666 -12.77778,12.77778 -31.66666,12.77778 H 657.77778 q -18.88889,0 -31.66667,-12.77778 -12.77778,-12.77777 -12.77778,-31.66666 0,-18.88889 12.77778,-31.66667 12.77778,-12.77778 31.66667,-12.77778 h 77.77778 Q 690,-720 623.33333,-755.55556 556.66667,-791.11111 480,-791.11111 q -130,0 -220.55556,90.55555 Q 168.88889,-610 168.88889,-480 q 0,130 90.55555,220.55556 Q 350,-168.88889 480,-168.88889 q 105.55556,0 188.88889,-63.33333 83.33333,-63.33334 110,-163.33334 5.55555,-17.77777 20,-26.66666 14.44444,-8.88889 32.22222,-6.66667 18.88889,2.22222 30,16.11111 11.11111,13.88889 6.66667,30.55556 Q 835.55556,-250 727.77778,-165 620,-80 480,-80 Z m 44.44444,-417.77778 111.11112,111.11111 q 12.22222,12.22223 12.22222,31.11111 0,18.88889 -12.22222,31.11112 -12.22223,12.22222 -31.11112,12.22222 -18.88888,0 -31.11111,-12.22222 L 448.88889,-448.88889 q -6.66667,-6.66667 -10,-15 -3.33333,-8.33333 -3.33333,-17.22222 v -176.66667 q 0,-18.88889 12.77777,-31.66666 12.77778,-12.77778 31.66667,-12.77778 18.88889,0 31.66667,12.77778 12.77777,12.77777 12.77777,31.66666 z"
     id="path2"
     style="stroke-width:1.11111;fill:#000000" /></svg>
